<?xml version="1.0" encoding="UTF-8"?>
<svg xmlns="http://www.w3.org/2000/svg" viewBox="0 0 1600 800" width="1600" height="800">
<g transform="translate(0,800) scale(0.1,-0.1)" fill="#9b59f0" stroke="none">
<path d="M2515 5750 c-59 -24 -104 -106 -105 -187 0 -29 11 -107 25 -175 14
-68 44 -211 66 -318 22 -107 46 -220 54 -250 8 -30 26 -116 40 -190 14 -74 35
-175 47 -225 11 -49 30 -155 43 -235 13 -80 33 -194 44 -255 10 -60 24 -141
31 -180 32 -200 89 -333 192 -450 33 -38 260 -271 502 -517 495 -501 483 -492
616 -492 65 0 83 4 135 31 60 31 97 66 349 333 55 58 215 222 356 365 245 248
324 335 364 398 33 54 77 212 107 392 27 160 45 267 79 455 6 30 21 116 35
190 38 214 91 482 156 786 67 317 72 384 37 454 -30 59 -75 83 -142 76 -67 -7
-118 -48 -316 -255 -91 -95 -174 -183 -186 -195 -59 -60 -406 -450 -520 -586
-156 -184 -233 -258 -311 -297 -51 -24 -69 -28 -148 -28 -81 0 -95 3 -145 30
-75 41 -156 120 -339 326 -186 210 -593 650 -776 838 -78 80 -146 141 -170
152 -42 20 -87 23 -120 9z m106 -98 c26 -18 238 -234 349 -357 35 -38 104
-113 154 -166 173 -181 393 -424 490 -539 66 -78 204 -204 248 -226 139 -71
276 -72 408 -4 56 29 163 127 256 235 165 191 259 299 318 364 33 37 75 84 95
106 215 241 496 532 555 576 49 37 88 38 115 3 34 -43 30 -90 -34 -384 -33
-151 -126 -617 -159 -800 -15 -80 -33 -179 -41 -220 -7 -41 -16 -95 -20 -120
-3 -25 -17 -106 -30 -180 -13 -74 -31 -178 -40 -230 -23 -134 -50 -211 -104
-290 -27 -40 -189 -215 -387 -417 -187 -191 -376 -386 -420 -433 -139 -149
-186 -190 -234 -204 -52 -15 -129 -8 -178 18 -17 9 -99 86 -184 172 -84 87
-293 299 -465 473 -172 174 -326 336 -344 360 -88 122 -98 165 -234 946 -14
83 -32 175 -40 206 -8 31 -28 123 -45 205 -16 82 -39 190 -50 239 -12 50 -29
131 -40 180 -10 50 -30 148 -45 219 -32 154 -31 223 5 261 28 29 64 32 101 7z"/>
<path d="M3000 4118 c-19 -20 -20 -30 -14 -88 34 -335 176 -636 378 -802 33
-27 70 -57 81 -67 43 -35 182 -121 230 -142 60 -26 132 -31 145 -9 14 22 12
83 -5 180 -61 344 -254 608 -645 881 -107 74 -137 82 -170 47z m206 -171 c21
-18 49 -40 60 -48 28 -19 132 -108 164 -140 73 -74 200 -242 200 -265 0 -3 13
-36 29 -72 50 -113 102 -324 83 -336 -11 -7 -94 32 -164 78 -115 73 -298 239
-298 270 0 4 -9 17 -21 29 -42 45 -130 252 -150 352 -23 117 -23 116 6 141 36
31 44 30 91 -9z"/>
<path d="M5044 4114 c-27 -14 -100 -65 -163 -112 -284 -214 -449 -440 -525
-717 -18 -65 -35 -216 -28 -251 5 -28 50 -47 88 -38 38 9 196 93 239 127 6 4
48 37 95 73 47 37 96 80 110 97 14 17 36 42 49 56 13 14 40 50 59 80 30 47 48
84 102 206 30 70 75 272 86 387 6 69 5 77 -15 97 -27 27 -38 27 -97 -5z m20
-176 c-48 -321 -186 -558 -420 -720 -69 -48 -225 -138 -238 -138 -12 0 37 244
53 264 4 6 20 43 35 83 23 60 71 142 95 163 3 3 7 11 9 19 4 19 95 124 167
192 96 91 257 212 282 212 7 0 13 7 13 16 0 12 2 13 8 4 5 -7 3 -50 -4 -95z"/>
<path d="M6402 4453 c-12 -10 -24 -30 -27 -45 -7 -28 27 -70 235 -293 126
-135 247 -269 269 -297 20 -24 21 -39 21 -221 0 -181 1 -196 21 -221 27 -34
71 -35 104 -1 25 24 25 25 25 225 0 201 0 201 103 313 84 93 175 192 399 441
25 28 22 63 -7 91 -26 27 -70 32 -95 12 -14 -11 -197 -211 -398 -436 -48 -52
-78 -78 -86 -74 -6 5 -43 42 -80 83 -390 426 -404 440 -437 440 -15 0 -36 -8
-47 -17z"/>
<path d="M8625 4446 c-14 -14 -38 -51 -54 -83 -44 -88 -147 -286 -322 -620
-88 -166 -159 -310 -159 -321 0 -11 9 -31 21 -46 25 -31 77 -36 101 -8 13 14
237 435 249 467 23 60 224 425 232 422 7 -2 29 -37 50 -78 21 -41 82 -159 136
-264 55 -104 138 -266 186 -360 48 -93 94 -178 103 -187 36 -42 122 -8 122 48
0 22 -56 148 -79 179 -5 6 -54 100 -111 210 -56 110 -149 288 -206 396 -57
109 -104 201 -104 207 0 5 -12 21 -26 36 -37 36 -104 37 -139 2z"/>
<path d="M10091 4456 c-50 -28 -50 -26 -51 -557 0 -487 0 -497 21 -523 16 -20
29 -26 59 -26 61 0 70 22 70 160 0 168 -11 160 207 160 l177 0 161 -160 c142
-141 165 -160 193 -160 46 0 86 41 77 78 -3 15 -51 72 -111 132 -57 58 -104
112 -103 120 0 8 26 27 57 42 112 53 190 156 213 282 36 195 -107 394 -324
452 -73 19 -611 19 -646 0z m659 -157 c79 -38 126 -88 146 -156 38 -132 -16
-247 -146 -307 -41 -19 -67 -21 -278 -24 -201 -3 -236 -1 -258 12 -24 16 -24
16 -24 231 0 117 4 225 9 239 6 13 20 27 33 29 13 3 122 4 243 4 214 -2 221
-3 275 -28z"/>
<path d="M11981 4444 c-21 -26 -21 -36 -21 -540 0 -501 1 -515 20 -534 26 -26
80 -26 108 0 22 21 22 21 22 540 0 507 -1 521 -20 540 -30 30 -83 27 -109 -6z"/>
<path d="M13474 4452 c-12 -9 -72 -116 -134 -237 -62 -121 -131 -254 -153
-295 -22 -41 -63 -120 -92 -175 -29 -55 -78 -147 -109 -205 -30 -58 -56 -112
-56 -121 0 -9 9 -28 21 -43 21 -27 69 -35 98 -17 16 10 167 292 346 645 72
140 135 256 142 256 7 0 58 -91 114 -202 155 -310 305 -601 337 -655 26 -44
32 -48 69 -51 34 -3 44 1 62 25 16 19 20 35 16 52 -4 14 -62 129 -129 256
-117 218 -211 398 -333 635 -30 58 -65 115 -79 128 -31 27 -90 29 -120 4z"/>
<path d="M13502 3629 c-124 -26 -133 -195 -14 -245 48 -20 93 -11 136 26 100
88 11 248 -122 219z"/>
<path d="M8611 3605 c-57 -49 -63 -127 -14 -185 52 -62 145 -61 198 1 19 24
25 42 25 81 0 45 -4 54 -39 89 -35 35 -44 39 -89 39 -39 0 -57 -6 -81 -25z"/>
</g>
<g transform="translate(0,800) scale(0.1,-0.1)" fill="#ffffff" stroke="none">
<path d="M2499 5717 c-19 -12 -42 -41 -53 -62 -24 -52 -18 -165 18 -325 116
-519 221 -1050 300 -1520 44 -260 80 -361 166 -472 23 -29 160 -172 304 -318
144 -146 345 -351 446 -455 102 -105 205 -205 230 -222 78 -53 148 -64 237
-38 74 22 118 57 244 190 62 66 261 272 443 458 325 334 401 418 436 487 44
87 73 218 155 705 46 275 188 1002 235 1205 52 225 50 292 -15 357 -28 28 -40
33 -79 33 -62 0 -97 -23 -227 -151 -156 -154 -639 -679 -743 -809 -159 -197
-297 -334 -377 -373 -173 -84 -327 -27 -525 195 -56 62 -164 183 -240 268 -77
85 -182 200 -235 255 -52 55 -133 141 -179 190 -247 266 -359 379 -396 401
-51 30 -101 31 -145 1z m126 -45 c17 -10 93 -86 170 -167 77 -82 183 -194 235
-250 132 -139 405 -438 525 -574 155 -177 261 -276 333 -311 87 -44 171 -55
256 -36 129 30 213 92 368 274 340 398 846 945 970 1049 61 50 124 41 157 -24
22 -43 15 -95 -52 -398 -68 -307 -182 -905 -227 -1198 -58 -377 -94 -522 -150
-611 -39 -61 -103 -130 -414 -446 -144 -146 -333 -340 -420 -432 -176 -186
-212 -211 -301 -210 -107 1 -111 4 -590 490 -243 246 -465 474 -494 507 -82
93 -125 193 -160 370 -40 203 -58 301 -66 355 -16 106 -78 431 -120 630 -25
118 -52 247 -60 285 -8 39 -23 108 -34 155 -36 158 -81 390 -81 425 0 107 76
165 155 117z"/>
<path d="M3017 4113 c-11 -10 -8 -76 8 -186 34 -227 117 -423 243 -572 134
-160 440 -360 519 -340 20 5 23 12 23 51 0 66 -35 226 -70 322 -60 166 -141
282 -297 432 -127 121 -172 158 -290 236 -91 60 -121 73 -136 57z m203 -152
c122 -89 304 -264 359 -345 55 -79 117 -214 150 -326 33 -111 51 -240 34 -240
-36 0 -228 109 -299 169 -16 14 -56 49 -88 76 -131 113 -241 312 -290 525 -25
106 -46 241 -40 251 6 11 30 -4 174 -110z"/>
<path d="M4995 4059 c-188 -128 -310 -239 -436 -399 -98 -123 -190 -355 -207
-515 -10 -98 -3 -135 26 -135 74 0 357 183 469 303 134 145 209 300 261 547
41 192 39 260 -7 260 -9 0 -56 -28 -106 -61z m90 -131 c-60 -351 -197 -574
-458 -749 -91 -61 -217 -129 -238 -129 -29 0 18 226 76 365 94 228 290 444
570 627 l60 39 3 -30 c2 -17 -4 -72 -13 -123z"/>
<path d="M6400 4440 c-11 -11 -20 -29 -20 -40 0 -23 0 -23 285 -335 116 -126
219 -241 228 -255 15 -21 17 -52 17 -221 0 -177 2 -197 18 -212 25 -22 75 -21
95 1 15 16 17 47 17 220 l0 201 58 64 c31 35 148 164 260 286 213 234 227 255
184 294 -19 17 -69 23 -87 9 -13 -9 -196 -209 -348 -379 -71 -80 -126 -133
-137 -133 -10 0 -27 11 -37 24 -17 22 -338 377 -415 459 -41 43 -85 50 -118
17z"/>
<path d="M8638 4449 c-9 -5 -56 -85 -104 -177 -48 -92 -153 -293 -234 -447
-232 -441 -212 -399 -199 -429 13 -28 41 -40 80 -34 28 4 73 82 294 515 177
344 205 395 219 390 6 -2 99 -172 206 -378 107 -207 213 -409 235 -450 l40
-74 45 0 c40 0 46 3 59 30 14 29 13 34 -36 125 -67 126 -263 500 -380 728 -52
100 -102 189 -110 197 -16 17 -89 20 -115 4z"/>
<path d="M10094 4448 c-12 -5 -27 -21 -33 -34 -8 -17 -11 -177 -11 -517 0
-554 -2 -537 69 -537 59 0 65 15 71 164 6 166 -6 157 222 154 l168 -3 159
-159 c140 -140 164 -159 192 -159 36 0 69 31 69 66 0 12 -42 63 -110 132 -60
61 -110 118 -110 127 0 10 24 27 63 46 79 37 138 96 179 180 30 60 33 74 32
156 0 77 -4 100 -26 149 -33 70 -111 155 -176 190 -94 51 -141 57 -452 56
-174 0 -293 -4 -306 -11z m635 -134 c60 -17 145 -89 166 -139 43 -101 22 -209
-53 -284 -75 -75 -103 -81 -387 -81 -174 0 -244 3 -253 12 -9 9 -12 76 -12
242 0 199 2 232 17 248 15 16 36 18 243 18 177 0 238 -3 279 -16z"/>
<path d="M11987 4442 c-15 -17 -17 -68 -17 -535 0 -455 2 -517 16 -531 24 -25
68 -24 97 1 16 15 17 53 17 533 0 488 -1 518 -18 533 -25 22 -75 21 -95 -1z"/>
<path d="M13478 4448 c-9 -7 -51 -80 -93 -163 -120 -233 -311 -598 -381 -727
-35 -64 -64 -125 -64 -135 0 -10 7 -29 16 -41 13 -19 24 -22 56 -20 l40 3 65
120 c35 66 141 270 235 453 94 182 177 332 184 332 7 0 84 -141 172 -312 277
-543 302 -589 329 -599 33 -12 75 8 87 42 8 23 -13 67 -156 340 -91 173 -207
395 -258 494 -51 99 -102 190 -113 203 -23 25 -92 31 -119 10z"/>
</g>
</svg>