<svg xmlns="http://www.w3.org/2000/svg" viewBox="0 0 900.000000 800.000000" width="900.000000" height="800.000000">
<g transform="translate(0,800.000000) scale(0.1,-0.1)" fill="#ffffff" stroke="none">
<path d="M423 4425 c-24 -25 -129 -141 -233 -257 l-190 -211 0 -299 c0 -164 2
-298 4 -298 3 0 12 7 20 16 14 13 16 47 16 212 0 189 1 199 23 229 12 17 128
146 257 288 129 141 239 263 243 271 20 35 -31 94 -80 94 -9 0 -36 -20 -60
-45z"/>
<path d="M1655 4461 c-12 -5 -26 -15 -32 -23 -7 -8 -78 -140 -159 -294 -80
-153 -198 -377 -261 -496 -101 -192 -114 -221 -106 -245 14 -41 52 -60 89 -45
25 11 53 58 183 310 85 163 189 362 230 442 42 80 83 146 91 148 12 2 79 -120
245 -442 242 -469 248 -479 305 -461 29 9 53 50 47 77 -4 13 -35 77 -70 143
-36 66 -151 287 -256 490 -106 204 -198 376 -205 383 -16 16 -75 24 -101 13z"/>
<path d="M5004 4459 c-12 -6 -27 -22 -33 -35 -8 -17 -11 -179 -11 -525 l0
-500 25 -24 c29 -30 64 -32 96 -6 l24 19 0 521 c0 565 2 543 -55 555 -14 3
-35 0 -46 -5z"/>
<path d="M6490 4457 c-18 -9 -63 -85 -170 -292 -80 -154 -198 -379 -263 -501
-64 -121 -117 -231 -117 -243 0 -12 4 -31 10 -41 12 -23 62 -35 89 -21 21 12
119 191 341 624 105 205 146 277 158 275 10 -2 101 -170 233 -428 119 -234
228 -437 242 -452 30 -33 69 -36 97 -8 11 11 20 31 20 45 0 14 -58 134 -129
267 -70 134 -169 322 -219 418 -164 317 -178 342 -203 356 -30 17 -57 17 -89
1z"/>
<path d="M3075 4435 l-25 -24 0 -508 c0 -279 4 -513 8 -519 10 -15 47 -34 67
-34 9 0 27 11 40 25 24 23 25 30 25 144 0 95 3 123 16 135 13 13 45 16 195 16
l180 0 158 -160 c172 -173 191 -184 239 -140 42 39 30 63 -89 191 -61 65 -108
122 -105 128 4 5 31 21 61 35 70 32 143 105 180 179 33 69 44 177 26 254 -28
117 -139 233 -267 279 -63 23 -74 24 -375 24 l-310 0 -24 -25z m642 -120 c64
-19 125 -64 160 -116 36 -54 44 -157 18 -225 -19 -51 -71 -106 -130 -138 -37
-20 -57 -21 -293 -24 -185 -2 -257 0 -268 9 -11 9 -14 54 -14 242 0 200 2 233
17 249 15 16 36 18 238 18 167 0 234 -4 272 -15z"/>
<path d="M6494 3619 c-45 -13 -76 -51 -81 -101 -5 -53 11 -85 57 -116 100 -68
224 38 177 150 -24 58 -88 86 -153 67z"/>
<path d="M1622 3604 c-53 -37 -66 -110 -29 -165 30 -45 63 -61 116 -56 54 6
91 40 100 94 9 47 -1 78 -36 116 -22 22 -35 27 -78 27 -30 0 -60 -6 -73 -16z"/>
</g>
</svg>