<svg xmlns="http://www.w3.org/2000/svg" viewBox="0 0 600.000000 800.000000" width="600.000000" height="800.000000">
<g transform="translate(0,800.000000) scale(0.1,-0.1)" fill="#a855f7" stroke="none">
<path d="M1515 5750 c-59 -24 -104 -106 -105 -187 0 -29 11 -107 25 -175 14
-68 44 -211 66 -318 22 -107 46 -220 54 -250 8 -30 26 -116 40 -190 14 -74 35
-175 47 -225 11 -49 30 -155 43 -235 13 -80 33 -194 44 -255 10 -60 24 -141
31 -180 32 -200 89 -333 192 -450 33 -38 260 -271 502 -517 495 -501 483 -492
616 -492 65 0 83 4 135 31 60 31 97 66 349 333 55 58 215 222 356 365 245 248
324 335 364 398 33 54 77 212 107 392 27 160 45 267 79 455 6 30 21 116 35
190 38 214 91 482 156 786 67 317 72 384 37 454 -30 59 -75 83 -142 76 -67 -7
-118 -48 -316 -255 -91 -95 -174 -183 -186 -195 -59 -60 -406 -450 -520 -586
-156 -184 -233 -258 -311 -297 -51 -24 -69 -28 -148 -28 -81 0 -95 3 -145 30
-75 41 -156 120 -339 326 -186 210 -593 650 -776 838 -78 80 -146 141 -170
152 -42 20 -87 23 -120 9z m106 -98 c26 -18 238 -234 349 -357 35 -38 104
-113 154 -166 173 -181 393 -424 490 -539 66 -78 204 -204 248 -226 139 -71
276 -72 408 -4 56 29 163 127 256 235 165 191 259 299 318 364 33 37 75 84 95
106 215 241 496 532 555 576 49 37 88 38 115 3 34 -43 30 -90 -34 -384 -33
-151 -126 -617 -159 -800 -15 -80 -33 -179 -41 -220 -7 -41 -16 -95 -20 -120
-3 -25 -17 -106 -30 -180 -13 -74 -31 -178 -40 -230 -23 -134 -50 -211 -104
-290 -27 -40 -189 -215 -387 -417 -187 -191 -376 -386 -420 -433 -139 -149
-186 -190 -234 -204 -52 -15 -129 -8 -178 18 -17 9 -99 86 -184 172 -84 87
-293 299 -465 473 -172 174 -326 336 -344 360 -88 122 -98 165 -234 946 -14
83 -32 175 -40 206 -8 31 -28 123 -45 205 -16 82 -39 190 -50 239 -12 50 -29
131 -40 180 -10 50 -30 148 -45 219 -32 154 -31 223 5 261 28 29 64 32 101 7z"/>
<path d="M2000 4118 c-19 -20 -20 -30 -14 -88 34 -335 176 -636 378 -802 33
-27 70 -57 81 -67 43 -35 182 -121 230 -142 60 -26 132 -31 145 -9 14 22 12
83 -5 180 -61 344 -254 608 -645 881 -107 74 -137 82 -170 47z m206 -171 c21
-18 49 -40 60 -48 28 -19 132 -108 164 -140 73 -74 200 -242 200 -265 0 -3 13
-36 29 -72 50 -113 102 -324 83 -336 -11 -7 -94 32 -164 78 -115 73 -298 239
-298 270 0 4 -9 17 -21 29 -42 45 -130 252 -150 352 -23 117 -23 116 6 141 36
31 44 30 91 -9z"/>
<path d="M4044 4114 c-27 -14 -100 -65 -163 -112 -284 -214 -449 -440 -525
-717 -18 -65 -35 -216 -28 -251 5 -28 50 -47 88 -38 38 9 196 93 239 127 6 4
48 37 95 73 47 37 96 80 110 97 14 17 36 42 49 56 13 14 40 50 59 80 30 47 48
84 102 206 30 70 75 272 86 387 6 69 5 77 -15 97 -27 27 -38 27 -97 -5z m20
-176 c-48 -321 -186 -558 -420 -720 -69 -48 -225 -138 -238 -138 -12 0 37 244
53 264 4 6 20 43 35 83 23 60 71 142 95 163 3 3 7 11 9 19 4 19 95 124 167
192 96 91 257 212 282 212 7 0 13 7 13 16 0 12 2 13 8 4 5 -7 3 -50 -4 -95z"/>
<path d="M5402 4453 c-12 -10 -24 -30 -27 -45 -7 -28 27 -70 235 -293 126
-135 247 -269 269 -297 20 -24 21 -39 21 -221 0 -181 1 -196 21 -221 14 -17
30 -26 50 -26 29 0 29 0 29 306 0 264 -2 305 -14 295 -15 -13 -63 32 -191 179
-27 30 -60 66 -74 80 -14 14 -75 78 -134 143 -116 125 -140 138 -185 100z"/>
</g>
</svg>