<svg xmlns="http://www.w3.org/2000/svg"
 viewBox="270 90 300 430"
 preserveAspectRatio="xMidYMid meet">


<!-- All paths share the same coordinate transform -->
<g transform="translate(0,671) scale(0.1,-0.1)">

  <!-- Main logo (ears + heart) - PURPLE with glow -->
  <g fill="#7B5FE8" stroke="none">
    <path d="M3205 5140 c-68 -33 -110 -76 -147 -147 -39 -75 -57 -130 -122 -373
-85 -319 -82 -304 -63 -333 9 -14 29 -28 45 -32 57 -12 215 68 291 149 19 20
38 36 42 36 3 0 21 -29 38 -65 40 -80 87 -140 216 -275 106 -111 148 -162 182
-222 l21 -36 -25 -24 c-74 -68 -175 -246 -194 -341 -14 -68 2 -175 34 -232 20
-36 27 -40 65 -43 43 -3 53 6 28 27 -8 6 -24 35 -36 63 -31 73 -30 170 3 241
51 109 153 177 267 177 104 0 151 -22 258 -124 l93 -89 87 85 c48 47 103 94
122 104 19 9 67 19 106 22 93 6 158 -15 221 -72 67 -60 96 -123 101 -213 4
-75 6 -69 -66 -216 -2 -5 15 -7 39 -5 40 3 44 6 68 53 23 44 26 62 26 155 0
103 -1 106 -43 193 -24 48 -72 124 -107 168 l-65 80 17 27 c38 60 89 122 190
229 133 142 166 184 214 275 21 40 39 67 39 61 0 -20 124 -116 192 -150 89
-44 127 -50 161 -23 19 15 27 31 27 52 0 27 -26 136 -101 418 -52 194 -85 268
-152 337 -58 61 -123 86 -211 81 -53 -2 -86 -11 -130 -32 -137 -67 -336 -321
-456 -580 -52 -113 -114 -300 -138 -416 -14 -69 -23 -94 -33 -92 -25 7 -195 5
-215 -2 -19 -6 -22 2 -42 98 -63 299 -214 610 -407 838 -62 73 -151 143 -217
170 -61 24 -172 24 -223 -2z m212 -75 c180 -83 415 -439 522 -790 28 -95 65
-255 59 -260 -9 -6 -72 -25 -75 -21 -2 2 -13 36 -25 77 -67 238 -188 447 -364
628 l-92 94 19 54 18 54 -26 10 c-15 5 -31 8 -38 6 -6 -3 -19 -31 -29 -63 -27
-89 -100 -238 -150 -309 -58 -81 -132 -146 -208 -184 -74 -38 -92 -39 -85 -8
13 63 128 488 142 527 64 180 191 251 332 185z m1750 4 c80 -39 126 -117 178
-306 66 -241 84 -308 94 -354 6 -25 13 -53 17 -62 9 -24 -12 -21 -81 12 -73
34 -172 123 -227 204 -47 68 -94 168 -133 280 l-28 78 -31 -7 c-17 -3 -32 -8
-34 -9 -2 -2 4 -29 14 -60 l18 -56 -77 -75 c-175 -171 -313 -402 -377 -634
-13 -47 -25 -87 -26 -88 -2 -2 -19 1 -40 8 -36 12 -36 12 -30 58 11 78 55 239
91 334 51 131 145 309 220 413 84 117 194 228 258 260 64 32 134 33 194 4z
m-1676 -431 c144 -151 250 -329 314 -522 52 -158 52 -159 3 -191 l-42 -28 -15
24 c-42 63 -97 129 -168 203 -163 167 -228 257 -256 352 -15 51 -15 53 10 89
14 20 36 61 49 91 13 30 27 54 30 54 4 0 38 -33 75 -72z m1522 15 c15 -32 37
-74 49 -94 22 -36 22 -38 5 -90 -25 -81 -82 -160 -222 -309 -70 -74 -145 -162
-167 -195 -23 -33 -43 -62 -44 -64 -2 -2 -22 8 -45 23 -39 26 -41 30 -35 66
10 64 65 219 108 305 59 117 141 234 231 330 43 47 82 85 86 85 4 0 20 -26 34
-57z m-668 -700 c80 -19 191 -74 253 -126 28 -23 51 -44 51 -47 1 -3 -47 -5
-106 -5 -134 0 -172 -16 -273 -110 l-71 -67 -62 60 c-88 84 -152 114 -252 120
-44 2 -97 0 -118 -6 -34 -10 -37 -9 -26 5 30 35 134 107 202 138 132 61 260
73 402 38z"/>
  </g>

  <!-- Pink inner ear accents + highlights - same coordinate system -->
  <g fill="#E040FB" stroke="none">
    <path d="M3425 4781 c-3 -5 22 -38 55 -73 175 -182 323 -432 391 -661 27 -89
29 -94 41 -73 21 38 -74 295 -168 453 -68 113 -119 180 -213 276 -72 74 -96
92 -106 78z"/>
    <path d="M4868 4703 c-135 -137 -190 -214 -273 -382 -49 -97 -115 -280 -115
-316 0 -8 -5 -15 -11 -15 -8 0 -8 -5 1 -15 18 -21 36 -3 45 43 9 48 64 190
105 272 44 87 132 227 169 270 17 19 7 -1 -23 -45 -73 -109 -125 -204 -168
-305 -67 -156 -94 -260 -68 -260 12 0 10 -6 45 120 55 198 184 419 334 572 80
82 96 108 68 108 -7 0 -45 -34 -86 -77 -59 -62 -63 -66 -23 -18 27 33 62 71
76 84 25 24 35 51 18 51 -4 0 -47 -39 -94 -87z"/>
    <path d="M3410 4737 c0 -8 34 -49 76 -93 156 -162 274 -366 335 -581 19 -63
38 -112 44 -110 44 16 -98 361 -228 550 -60 88 -201 247 -218 247 -5 0 -9 -6
-9 -13z"/>
  </g>

  <!-- V/chevron - PURPLE with glow -->
  <g fill="#7B5FE8" stroke="none">
    <path d="M3610 3132 c0 -4 118 -125 263 -269 170 -169 272 -264 290 -268 15
-4 44 -4 65 0 32 6 74 44 300 268 144 144 262 265 262 269 0 5 -21 8 -47 8
l-48 0 -235 -240 c-182 -185 -242 -240 -261 -240 -18 0 -81 57 -264 240 -238
238 -240 240 -282 240 -24 0 -43 -3 -43 -8z"/>
  </g>

  <!-- YARIA text - WHITE -->
  <g fill="white" stroke="none">
    <!-- Y -->
    <path d="M3182 2138 c-7 -7 -12 -19 -12 -28 0 -9 32 -59 70 -110 39 -51 70
-103 70 -114 1 -98 7 -173 13 -183 10 -16 49 -17 65 -1 8 8 12 45 12 101 0 48
4 97 10 107 5 10 39 56 74 103 67 89 75 120 35 132 -27 9 -41 -2 -99 -77 -29
-38 -57 -68 -64 -68 -6 1 -37 34 -69 75 -56 74 -80 88 -105 63z"/>
    <!-- A -->
    <path d="M3764 2132 c-9 -11 -51 -104 -95 -208 -80 -189 -88 -225 -53 -238 23
-9 45 7 63 45 l16 34 105 0 105 0 20 -37 c11 -21 26 -40 33 -43 21 -8 52 14
52 36 0 22 -141 368 -166 407 -18 27 -58 29 -80 4z m69 -187 c15 -36 27 -70
27 -75 0 -6 -27 -10 -60 -10 -33 0 -60 3 -60 7 0 13 55 143 61 143 3 0 17 -29
32 -65z"/>
    <!-- R -->
    <path d="M4155 2137 c-19 -14 -20 -29 -23 -211 -3 -210 1 -236 43 -236 30 0
38 13 45 70 4 40 8 45 32 48 37 4 48 -4 98 -66 34 -44 46 -53 68 -50 37 4 41
40 8 87 -14 20 -26 40 -26 45 0 4 14 25 32 47 24 30 32 51 36 93 6 68 -17 119
-71 154 -34 22 -52 27 -131 30 -70 3 -96 0 -111 -11z m214 -103 c39 -50 20
-118 -38 -135 -20 -6 -52 -9 -71 -7 l-35 3 -3 83 -3 82 65 0 c58 0 67 -3 85
-26z"/>
    <!-- I -->
    <path d="M4612 2142 c-9 -7 -12 -59 -10 -228 l3 -219 23 -3 c49 -7 52 5 52
227 0 212 -3 231 -39 231 -9 0 -22 -4 -29 -8z"/>
    <!-- A -->
    <path d="M4977 2132 c-26 -29 -178 -402 -172 -422 7 -21 29 -32 50 -23 9 3 25
23 36 44 l19 39 105 0 105 0 13 -32 c19 -46 41 -62 65 -49 11 6 22 17 25 24 5
15 -149 394 -172 421 -18 21 -54 21 -74 -2z m93 -254 c0 -15 -9 -18 -61 -18
-69 0 -68 -5 -22 98 l26 57 28 -60 c15 -33 28 -68 29 -77z"/>
  </g>

</g>
</svg>
